<?xml version="1.0" standalone="no"?>
<!DOCTYPE svg PUBLIC "-//W3C//DTD SVG 20010904//EN"
 "http://www.w3.org/TR/2001/REC-SVG-20010904/DTD/svg10.dtd">
<svg version="1.0" xmlns="http://www.w3.org/2000/svg"
 width="400.000000pt" height="400.000000pt" viewBox="0 0 400.000000 400.000000"
 preserveAspectRatio="xMidYMid meet">
<metadata>
Created by potrace 1.14, written by Peter Selinger 2001-2017
</metadata>
<g transform="translate(0.000000,400.000000) scale(0.100000,-0.100000)"
fill="#000000" stroke="none">
<path d="M1989 3866 c-2 -2 -30 -7 -62 -10 -32 -4 -69 -11 -82 -16 -14 -5 -25
-7 -25 -4 0 4 -7 0 -17 -7 -9 -8 -19 -13 -22 -12 -10 4 -85 -20 -107 -34 -11
-7 -24 -10 -27 -6 -4 3 -7 2 -7 -3 0 -6 -19 -18 -42 -29 -24 -10 -59 -31 -79
-47 -20 -15 -40 -28 -44 -28 -3 0 -12 -6 -20 -12 -7 -7 -36 -31 -64 -53 -28
-22 -51 -42 -51 -46 0 -4 -22 -30 -50 -58 -27 -28 -50 -56 -50 -61 0 -5 -6
-13 -13 -17 -11 -7 -82 -134 -78 -141 1 -1 -7 -23 -19 -49 -11 -25 -18 -48
-15 -51 3 -3 1 -10 -5 -16 -5 -7 -12 -27 -15 -46 -4 -19 -8 -39 -9 -45 -1 -5
-4 -14 -7 -20 -3 -5 -7 -30 -8 -55 -2 -25 -6 -47 -9 -50 -4 -3 -8 -25 -9 -50
-1 -25 -4 -91 -6 -147 -3 -56 -8 -106 -11 -112 -4 -6 -4 -11 1 -11 4 0 9 -38
10 -85 0 -46 4 -104 7 -127 4 -24 9 -65 12 -93 3 -27 8 -57 11 -65 9 -23 13
-42 18 -77 2 -18 11 -49 19 -68 38 -85 45 -102 56 -130 6 -17 12 -32 13 -35 1
-7 17 -26 43 -55 12 -13 19 -26 16 -29 -3 -3 0 -6 7 -6 7 0 11 -5 9 -12 -4
-12 -19 -16 -80 -20 -21 -2 -38 -6 -38 -9 0 -4 -12 -7 -27 -7 -16 0 -39 -3
-53 -6 -14 -4 -41 -9 -60 -12 -55 -9 -203 -53 -214 -64 -5 -5 -19 -10 -31 -11
-11 0 -65 -15 -120 -33 -92 -30 -100 -35 -103 -60 -2 -17 6 -42 20 -64 103
-157 122 -188 120 -194 -1 -5 2 -8 8 -8 5 0 17 -16 26 -35 9 -19 20 -35 24
-35 4 0 10 -10 13 -21 4 -15 -6 -38 -35 -75 -48 -64 -64 -91 -116 -199 -49
-99 -68 -143 -77 -175 -3 -14 -10 -34 -15 -45 -5 -11 -14 -42 -20 -70 -6 -27
-13 -59 -15 -70 -9 -33 -17 -88 -20 -126 -1 -20 -5 -41 -8 -46 -6 -9 -20 -176
-20 -246 -1 -39 18 -63 38 -48 5 5 704 8 1552 7 1363 -1 1544 1 1549 14 10 21
12 60 12 185 0 101 -3 170 -7 170 -1 0 -4 16 -6 35 -3 19 -7 46 -10 60 -3 14
-8 37 -10 52 -2 15 -8 35 -14 45 -5 10 -10 23 -10 28 -10 76 -143 387 -175
407 -6 4 -8 8 -4 8 10 0 -28 76 -59 117 -22 30 -23 35 -9 60 8 16 26 42 40 58
14 17 30 35 36 42 5 7 10 15 10 19 0 3 13 23 29 43 35 45 41 61 29 83 -8 17
-68 54 -68 43 0 -3 -10 -1 -21 6 -12 6 -36 13 -53 15 -17 3 -40 9 -51 14 -19
9 -178 61 -200 66 -5 1 -29 9 -52 18 -24 8 -43 12 -43 9 0 -4 -5 -2 -12 5 -7
7 -23 12 -37 12 -13 0 -38 4 -55 9 -64 20 -112 30 -156 35 -25 3 -56 8 -70 11
-14 3 -62 9 -108 14 -46 5 -85 11 -88 14 -3 3 12 24 34 48 68 71 136 238 162
397 10 62 15 72 29 67 34 -14 130 -20 171 -11 36 8 96 79 103 122 5 32 2 131
-6 175 -1 9 -10 24 -20 33 -9 10 -17 21 -17 25 0 3 -13 15 -30 24 -29 18 -30
19 -15 48 9 16 13 29 9 29 -4 0 -2 6 4 13 21 25 44 172 47 290 1 79 7 134 17
157 19 47 15 233 -7 320 -33 126 -60 161 -121 156 -20 -2 -55 -18 -79 -35 -24
-17 -49 -31 -55 -31 -7 0 -30 15 -52 34 -60 52 -146 87 -300 122 -29 7 -273
15 -279 10z"/>
</g>
</svg>
